<svg xmlns="http://www.w3.org/2000/svg" viewBox="0 0 1536 1024" preserveAspectRatio="xMidYMid slice" role="img" aria-label="ainews">
  <defs>
    <linearGradient id="bg" x1="0" y1="0" x2="1" y2="1">
      <stop offset="0" stop-color="#0f172a"/>
      <stop offset="0.55" stop-color="#1e293b"/>
      <stop offset="1" stop-color="#0b1220"/>
    </linearGradient>
    <linearGradient id="wave" x1="0" y1="0" x2="1" y2="0">
      <stop offset="0" stop-color="#fb7185"/>
      <stop offset="0.5" stop-color="#a78bfa"/>
      <stop offset="1" stop-color="#22d3ee"/>
    </linearGradient>
    <radialGradient id="glow" cx="0.5" cy="0.5" r="0.5">
      <stop offset="0" stop-color="#a78bfa" stop-opacity="0.35"/>
      <stop offset="1" stop-color="#a78bfa" stop-opacity="0"/>
    </radialGradient>
  </defs>
  <rect width="1536" height="1024" fill="url(#bg)"/>
  <circle cx="768" cy="512" r="520" fill="url(#glow)"/>
  <g fill="none" stroke="url(#wave)" stroke-width="6" stroke-linecap="round" opacity="0.85">
    <path d="M-40 620 C 220 520, 380 720, 620 600 S 1020 460, 1280 580 S 1620 700, 1700 600"/>
    <path d="M-40 540 C 220 440, 380 640, 620 520 S 1020 380, 1280 500 S 1620 620, 1700 520" opacity="0.55"/>
    <path d="M-40 700 C 220 600, 380 800, 620 680 S 1020 540, 1280 660 S 1620 780, 1700 680" opacity="0.4"/>
  </g>
  <g fill="#94a3b8" opacity="0.55">
    <circle cx="240" cy="280" r="3"/>
    <circle cx="380" cy="180" r="2"/>
    <circle cx="540" cy="320" r="2.5"/>
    <circle cx="980" cy="220" r="3"/>
    <circle cx="1180" cy="320" r="2"/>
    <circle cx="1320" cy="200" r="2.5"/>
    <circle cx="160" cy="800" r="2"/>
    <circle cx="1380" cy="820" r="3"/>
  </g>
  <g transform="translate(768 512)" text-anchor="middle" font-family="ui-sans-serif, system-ui, -apple-system, 'Segoe UI', Roboto, sans-serif" font-weight="700">
    <text y="-8" font-size="120" letter-spacing="-3" fill="#f8fafc">ainews</text>
    <text y="64" font-size="28" letter-spacing="14" fill="#94a3b8" font-weight="500">SIGNALS · SOURCED · DAILY</text>
  </g>
</svg>
