<svg xmlns="http://www.w3.org/2000/svg" viewBox="0 0 256 256" preserveAspectRatio="xMidYMid slice" role="img" aria-label="Apple">
  <defs>
    <radialGradient id="aurora1" cx="0.25" cy="0.32" r="0.55" fx="0.18" fy="0.28">
      <stop offset="0" stop-color="#A1A1AA" stop-opacity="0.85"/>
      <stop offset="0.55" stop-color="#A1A1AA" stop-opacity="0.18"/>
      <stop offset="1" stop-color="#A1A1AA" stop-opacity="0"/>
    </radialGradient>
    <radialGradient id="aurora2" cx="0.78" cy="0.78" r="0.55" fx="0.85" fy="0.82">
      <stop offset="0" stop-color="#52525B" stop-opacity="0.65"/>
      <stop offset="0.55" stop-color="#52525B" stop-opacity="0.14"/>
      <stop offset="1" stop-color="#52525B" stop-opacity="0"/>
    </radialGradient>
    <radialGradient id="vignette" cx="0.5" cy="0.5" r="0.7">
      <stop offset="0" stop-color="#000000" stop-opacity="0"/>
      <stop offset="1" stop-color="#000000" stop-opacity="0.55"/>
    </radialGradient>
    <filter id="grain">
      <feTurbulence type="fractalNoise" baseFrequency="0.9" numOctaves="2" seed="3"/>
      <feColorMatrix values="0 0 0 0 1  0 0 0 0 1  0 0 0 0 1  0 0 0 0.08 0"/>
      <feComposite in2="SourceGraphic" operator="in"/>
    </filter>
  </defs>
  <rect width="256" height="256" fill="#0A0A0F"/>
  <rect width="256" height="256" fill="url(#aurora1)"/>
  <rect width="256" height="256" fill="url(#aurora2)"/>
  <rect width="256" height="256" fill="url(#vignette)"/>
  <rect width="256" height="256" filter="url(#grain)" opacity="0.4"/>
  <g transform="translate(72 72) scale(4.667)" fill="#FFFFFF">
    <path d="M12.152 6.896c-.948 0-2.415-1.078-3.96-1.04-2.04.027-3.91 1.183-4.961 3.014-2.117 3.675-.546 9.103 1.519 12.09 1.013 1.454 2.208 3.09 3.792 3.039 1.52-.065 2.09-.987 3.935-.987 1.831 0 2.35.987 3.96.948 1.637-.026 2.676-1.48 3.676-2.948 1.156-1.688 1.636-3.325 1.662-3.415-.039-.013-3.182-1.221-3.22-4.857-.026-3.04 2.48-4.494 2.597-4.559-1.429-2.09-3.623-2.324-4.39-2.376-2-.156-3.675 1.09-4.61 1.09zM15.53 3.83c.843-1.012 1.4-2.427 1.245-3.83-1.207.052-2.662.805-3.532 1.818-.78.896-1.454 2.338-1.273 3.714 1.338.104 2.715-.688 3.559-1.701"/>
  </g>
</svg>
