<svg xmlns="http://www.w3.org/2000/svg" viewBox="0 0 256 256" preserveAspectRatio="xMidYMid slice" role="img" aria-label="DeepMind">
  <defs>
    <radialGradient id="aurora1" cx="0.25" cy="0.32" r="0.55" fx="0.18" fy="0.28">
      <stop offset="0" stop-color="#4885ED" stop-opacity="0.85"/>
      <stop offset="0.55" stop-color="#4885ED" stop-opacity="0.18"/>
      <stop offset="1" stop-color="#4885ED" stop-opacity="0"/>
    </radialGradient>
    <radialGradient id="aurora2" cx="0.78" cy="0.78" r="0.55" fx="0.85" fy="0.82">
      <stop offset="0" stop-color="#8B5CF6" stop-opacity="0.65"/>
      <stop offset="0.55" stop-color="#8B5CF6" stop-opacity="0.14"/>
      <stop offset="1" stop-color="#8B5CF6" stop-opacity="0"/>
    </radialGradient>
    <radialGradient id="vignette" cx="0.5" cy="0.5" r="0.7">
      <stop offset="0" stop-color="#000000" stop-opacity="0"/>
      <stop offset="1" stop-color="#000000" stop-opacity="0.55"/>
    </radialGradient>
    <filter id="grain">
      <feTurbulence type="fractalNoise" baseFrequency="0.9" numOctaves="2" seed="3"/>
      <feColorMatrix values="0 0 0 0 1  0 0 0 0 1  0 0 0 0 1  0 0 0 0.08 0"/>
      <feComposite in2="SourceGraphic" operator="in"/>
    </filter>
  </defs>
  <rect width="256" height="256" fill="#0A0A0F"/>
  <rect width="256" height="256" fill="url(#aurora1)"/>
  <rect width="256" height="256" fill="url(#aurora2)"/>
  <rect width="256" height="256" fill="url(#vignette)"/>
  <rect width="256" height="256" filter="url(#grain)" opacity="0.4"/>
  <g transform="translate(72 72) scale(4.667)" fill="#FFFFFF">
    <path d="M11.04 19.32Q12 21.51 12 24q0-2.49.93-4.68.96-2.19 2.58-3.81t3.81-2.55Q21.51 12 24 12q-2.49 0-4.68-.93a12.3 12.3 0 0 1-3.81-2.58 12.3 12.3 0 0 1-2.58-3.81Q12 2.49 12 0q0 2.49-.96 4.68-.93 2.19-2.55 3.81a12.3 12.3 0 0 1-3.81 2.58Q2.49 12 0 12q2.49 0 4.68.96 2.19.93 3.81 2.55t2.55 3.81"/>
  </g>
</svg>
