<svg xmlns="http://www.w3.org/2000/svg" viewBox="0 0 256 256" preserveAspectRatio="xMidYMid slice" role="img" aria-label="Qwen">
  <defs>
    <radialGradient id="aurora1" cx="0.25" cy="0.32" r="0.55" fx="0.18" fy="0.28">
      <stop offset="0" stop-color="#615CED" stop-opacity="0.85"/>
      <stop offset="0.55" stop-color="#615CED" stop-opacity="0.18"/>
      <stop offset="1" stop-color="#615CED" stop-opacity="0"/>
    </radialGradient>
    <radialGradient id="aurora2" cx="0.78" cy="0.78" r="0.55" fx="0.85" fy="0.82">
      <stop offset="0" stop-color="#A855F7" stop-opacity="0.65"/>
      <stop offset="0.55" stop-color="#A855F7" stop-opacity="0.14"/>
      <stop offset="1" stop-color="#A855F7" stop-opacity="0"/>
    </radialGradient>
    <radialGradient id="vignette" cx="0.5" cy="0.5" r="0.7">
      <stop offset="0" stop-color="#000000" stop-opacity="0"/>
      <stop offset="1" stop-color="#000000" stop-opacity="0.55"/>
    </radialGradient>
    <filter id="grain">
      <feTurbulence type="fractalNoise" baseFrequency="0.9" numOctaves="2" seed="3"/>
      <feColorMatrix values="0 0 0 0 1  0 0 0 0 1  0 0 0 0 1  0 0 0 0.08 0"/>
      <feComposite in2="SourceGraphic" operator="in"/>
    </filter>
  </defs>
  <rect width="256" height="256" fill="#0A0A0F"/>
  <rect width="256" height="256" fill="url(#aurora1)"/>
  <rect width="256" height="256" fill="url(#aurora2)"/>
  <rect width="256" height="256" fill="url(#vignette)"/>
  <rect width="256" height="256" filter="url(#grain)" opacity="0.4"/>
  <g transform="translate(72 72) scale(4.667)" fill="#FFFFFF">
    <path d="M3.996 4.517h5.291L8.01 6.324 4.153 7.506a1.668 1.668 0 0 0-1.165 1.601v5.786a1.668 1.668 0 0 0 1.165 1.6l3.857 1.183 1.277 1.807H3.996A3.996 3.996 0 0 1 0 15.487V8.513a3.996 3.996 0 0 1 3.996-3.996m16.008 0h-5.291l1.277 1.807 3.857 1.182c.715.227 1.17.889 1.165 1.601v5.786a1.668 1.668 0 0 1-1.165 1.6l-3.857 1.183-1.277 1.807h5.291A3.996 3.996 0 0 0 24 15.487V8.513a3.996 3.996 0 0 0-3.996-3.996m-4.007 8.345H8.002v-1.804h7.995Z"/>
  </g>
</svg>
